<?xml version="1.0" encoding="UTF-8"?>
<!DOCTYPE svg PUBLIC "-//W3C//DTD SVG 1.1//EN" "http://www.w3.org/Graphics/SVG/1.1/DTD/svg11.dtd">
<!-- Creator: CorelDRAW X8 -->
<svg xmlns="http://www.w3.org/2000/svg" xml:space="preserve" width="155.704mm" height="31.6mm" version="1.1" style="shape-rendering:geometricPrecision; text-rendering:geometricPrecision; image-rendering:optimizeQuality; fill-rule:evenodd; clip-rule:evenodd"
viewBox="0 0 15570 3160"
 xmlns:xlink="http://www.w3.org/1999/xlink">
 <defs>
  <style type="text/css">
   <![CDATA[
    .fil1 {fill:#66BC50;fill-rule:nonzero}
    .fil0 {fill:#201E1E;fill-rule:nonzero}
   ]]>
  </style>
 </defs>
 <g id="Camada_x0020_1">
  <metadata id="CorelCorpID_0Corel-Layer"/>
  <path class="fil0" d="M10285 2167c0,254 386,254 386,0 0,-254 -386,-254 -386,0zm1860 169l0 -707c0,-174 110,-326 287,-326 176,0 249,147 249,321l0 712 326 0 0 -712c0,-396 -184,-627 -559,-627 -171,0 -324,54 -442,241 -75,-182 -233,-246 -391,-246 -125,0 -278,48 -347,182l-25 -161 -302 0 0 1323 327 0 0 -707c0,-174 104,-332 281,-332 179,0 270,158 270,332l0 707 326 0zm2503 -544c51,-543 -225,-816 -667,-816 -428,0 -701,289 -701,691 0,422 271,703 726,703 200,0 428,-69 567,-214l-209 -206c-75,78 -233,123 -353,123 -230,0 -372,-117 -394,-281l1031 0zm-1025 -270c48,-171 193,-257 369,-257 188,0 321,86 343,257l-712 0z"/>
  <path class="fil0" d="M1426 1011l0 1606c0,326 -142,538 -439,538 -96,0 -198,-27 -292,-89l118 -254c56,27 110,40 158,38 107,-6 131,-89 131,-233l0 -1606 324 0zm-353 -370c0,255 385,255 385,0 0,-254 -385,-254 -385,0z"/>
  <path class="fil1" d="M768 2090c-198,21 -238,-16 -238,-203l0 -359c0,-158 13,-289 -187,-345 200,-59 187,-188 187,-348l0 -359c0,-187 64,-249 238,-203l0 -255c-396,-72 -581,102 -581,442l0 375c0,101 -18,225 -187,225l0 243c169,0 187,123 187,225l0 375c0,340 185,514 581,441l0 -254z"/>
  <path class="fil1" d="M14802 2342c396,72 581,-102 581,-442l0 -374c0,-102 19,-225 187,-225l0 -244c-168,0 -187,-123 -187,-224l0 -375c0,-340 -185,-514 -581,-442l0 254c174,-45 238,17 238,204l0 359c0,160 -13,289 188,347 -201,57 -188,188 -188,346l0 358c0,188 -40,225 -238,204l0 254z"/>
  <path class="fil1" d="M2609 1048c-91,-61 -198,-75 -302,-75 -370,0 -669,257 -669,669 0,413 257,664 669,664 163,0 334,83 334,265 0,182 -147,284 -334,284 -188,0 -346,-113 -346,-284l-323 0c0,356 286,589 669,589 382,0 661,-225 661,-589 0,-168 -54,-326 -273,-436 217,-99 278,-329 278,-493 0,-144 -37,-275 -139,-390l147 -188 -241 -182 -131 166zm-302 222c187,0 342,145 342,372 0,228 -155,367 -342,367 -190,0 -346,-136 -346,-367 0,-230 156,-372 346,-372zm883 -254l0 693c0,410 230,648 546,648 185,0 310,-64 447,-198l21 177 292 0 0 -1320 -324 0 0 673c0,202 -136,371 -337,371 -209,0 -319,-153 -319,-353l0 -691 -326 0zm1922 -5l0 1325 -327 0 0 -1325 327 0zm-356 -367c0,254 385,254 385,0 0,-254 -385,-254 -385,0zm650 -179l0 1871 324 0 0 -1871 -324 0zm610 -6l0 1877 327 0 0 -675c0,-198 134,-361 326,-361 174,0 300,102 300,342l0 694 327 0 0 -696c0,-388 -166,-643 -541,-643 -150,0 -294,46 -412,198l0 -736 -327 0zm2864 1333c51,-543 -225,-816 -666,-816 -429,0 -702,289 -702,691 0,422 271,703 726,703 200,0 428,-69 567,-214l-209 -206c-75,78 -232,123 -353,123 -230,0 -372,-117 -393,-281l1030 0zm-1025 -270c48,-171 193,-257 369,-257 188,0 322,86 343,257l-712 0zm1277 -506l0 1320 326 0 0 -696c0,-244 158,-335 329,-335 107,0 169,30 236,86l147 -284c-72,-72 -203,-126 -340,-126 -134,0 -270,24 -372,188l-24 -153 -302 0z"/>
 </g>
</svg>
